<?xml version="1.0" standalone="no"?>
<!DOCTYPE svg PUBLIC "-//W3C//DTD SVG 20010904//EN"
 "http://www.w3.org/TR/2001/REC-SVG-20010904/DTD/svg10.dtd">
<svg version="1.0" xmlns="http://www.w3.org/2000/svg"
 width="513.000000pt" height="513.000000pt" viewBox="0 0 513.000000 513.000000"
 preserveAspectRatio="xMidYMid meet">
<metadata>
Created by potrace 1.14, written by Peter Selinger 2001-2017
</metadata>
<g transform="translate(0.000000,513.000000) scale(0.100000,-0.100000)"
fill="#000000" stroke="none">
<path d="M2840 4732 c0 -5 -12 -9 -27 -9 -56 1 -143 -21 -143 -36 0 -6 -3 -7
-7 -4 -11 12 -33 -14 -33 -39 0 -13 4 -24 8 -24 5 0 14 -16 22 -35 8 -19 17
-35 22 -35 4 0 8 -9 8 -20 0 -11 3 -20 8 -20 4 0 7 -18 7 -40 0 -22 -3 -40 -7
-40 -5 0 -8 -6 -8 -13 0 -14 -80 -64 -80 -50 0 4 -4 2 -9 -6 -10 -15 -171 -25
-171 -11 0 5 -9 12 -20 15 -11 3 -20 10 -20 15 0 13 -48 59 -54 52 -3 -3 -6 2
-6 11 0 10 -3 16 -7 16 -20 -3 -34 2 -28 11 5 9 -21 14 -62 13 -7 -1 -13 3
-13 9 0 5 -5 6 -12 2 -7 -4 -24 -9 -38 -9 -39 -3 -90 -16 -90 -24 0 -4 -10 -7
-22 -8 -11 -1 -25 -8 -29 -15 -5 -7 -9 -8 -9 -3 0 6 -7 1 -16 -10 -8 -11 -17
-19 -19 -17 -7 3 -45 -22 -45 -30 0 -5 -29 -37 -65 -73 -36 -36 -64 -65 -61
-65 3 0 -7 -12 -21 -27 -34 -37 -53 -84 -58 -145 -2 -28 -8 -55 -12 -59 -5 -5
-43 -10 -85 -12 -42 -1 -80 -5 -83 -9 -4 -4 -13 -4 -21 -1 -8 3 -14 1 -14 -5
0 -6 -8 -9 -17 -8 -19 3 -151 -62 -177 -85 -8 -8 -29 -25 -47 -39 -29 -22 -45
-38 -103 -100 -45 -48 -84 -164 -89 -267 -2 -34 -10 -70 -18 -79 -12 -16 -12
-17 1 -10 12 7 12 5 -1 -8 -9 -10 -22 -18 -30 -19 -8 -2 -20 -6 -26 -10 -7 -5
-13 -5 -13 0 0 4 -4 3 -8 -2 -4 -6 -27 -24 -52 -40 -25 -17 -46 -33 -48 -37
-2 -5 -7 -8 -12 -8 -5 0 -35 -25 -67 -55 -32 -30 -61 -55 -65 -55 -5 0 -8 -7
-8 -15 0 -7 -6 -18 -13 -22 -8 -4 -26 -27 -42 -50 -15 -24 -32 -43 -36 -43 -5
0 -8 -3 -7 -7 2 -11 -14 -47 -23 -53 -4 -3 -10 -17 -12 -30 -2 -14 -10 -38
-17 -55 -19 -42 -22 -333 -4 -392 7 -24 10 -43 7 -43 -3 0 0 -6 6 -13 6 -8 8
-16 5 -19 -3 -4 2 -20 11 -37 8 -17 13 -31 11 -31 -8 0 63 -119 88 -148 37
-44 109 -112 114 -108 2 3 13 -4 25 -14 11 -11 24 -17 29 -14 4 3 8 0 8 -7 0
-7 3 -9 6 -6 4 3 16 1 28 -5 11 -7 23 -13 26 -13 52 -13 58 -18 70 -63 6 -26
16 -65 22 -87 6 -22 12 -44 12 -50 1 -5 4 -13 9 -16 4 -3 9 -20 10 -37 1 -18
5 -32 8 -32 5 0 21 -47 34 -100 0 -3 6 -15 13 -26 6 -12 9 -24 6 -26 -4 -5 11
-51 43 -138 6 -15 12 -42 15 -67 1 -7 5 -13 10 -13 4 0 8 -8 8 -18 0 -9 9 -42
21 -72 11 -30 22 -62 23 -70 1 -8 5 -22 8 -30 15 -39 53 -146 53 -150 0 -3 5
-12 10 -20 5 -8 10 -21 11 -30 3 -19 12 -54 14 -57 2 -2 4 -7 5 -13 1 -5 3
-11 5 -12 1 -2 4 -15 6 -30 3 -15 12 -44 21 -65 18 -42 23 -57 27 -93 5 -48
43 -115 80 -145 21 -17 38 -28 39 -26 1 2 13 -2 27 -9 14 -8 30 -15 35 -17 6
-1 35 -10 65 -19 30 -9 72 -19 93 -21 20 -3 37 -8 37 -12 0 -3 17 -7 37 -8 21
-1 39 -7 41 -12 2 -7 10 -8 21 -1 10 5 20 7 23 5 12 -13 154 -25 338 -30 165
-3 462 -7 470 -5 3 0 64 1 137 2 78 1 130 5 126 11 -3 5 3 5 13 -1 11 -5 37
-8 59 -5 22 2 67 5 100 7 33 3 61 5 63 6 1 2 10 3 20 4 9 1 22 4 27 7 6 3 29
5 52 4 23 0 39 3 37 7 -3 4 5 8 18 9 13 0 32 3 43 5 11 3 29 6 40 8 11 2 20 4
20 5 0 2 8 4 18 7 9 2 25 6 35 8 9 3 18 5 20 6 1 2 7 4 12 5 6 1 12 4 15 5 3
1 8 3 13 4 34 8 82 29 82 37 0 5 3 8 8 7 22 -8 87 73 95 118 9 45 20 74 29 74
5 0 7 4 4 8 -3 5 6 42 20 83 14 41 27 81 29 90 2 8 10 32 19 54 9 21 14 40 11
43 -3 3 0 10 5 17 5 6 11 20 13 31 2 10 7 27 12 37 4 10 5 21 1 24 -3 3 -2 11
3 17 8 10 30 78 37 114 1 8 6 21 10 30 4 9 8 19 9 22 10 32 29 96 29 100 1 3
5 11 10 18 4 7 5 16 2 19 -3 3 -1 12 5 20 6 7 8 13 4 13 -4 0 -2 7 5 15 7 8
10 21 7 29 -3 8 -2 16 2 18 7 3 81 220 81 238 0 5 5 21 12 37 6 15 11 31 10
35 -1 4 5 23 14 43 8 20 12 40 9 45 -4 6 -1 10 6 10 6 0 9 8 6 20 -3 11 -1 20
4 20 5 0 9 9 9 21 0 30 30 89 46 89 7 0 17 6 21 13 4 7 19 21 33 30 13 9 20
17 15 17 -5 0 7 12 26 26 19 14 33 30 31 35 -1 5 5 9 15 9 9 0 14 3 10 6 -3 4
5 21 18 39 14 17 25 37 25 43 0 7 3 12 8 12 4 0 12 12 19 27 43 103 53 132 55
161 1 6 4 12 7 12 4 0 7 13 7 30 1 16 5 37 9 47 7 19 16 103 16 161 0 22 3 30
11 26 7 -5 8 -3 2 7 -5 8 -10 48 -11 89 -2 92 -10 195 -18 235 -15 78 -80 231
-111 263 -8 7 -12 18 -9 23 4 5 -1 9 -9 9 -9 0 -16 7 -16 15 0 8 -4 15 -10 15
-5 0 -10 7 -10 16 0 8 -4 13 -9 10 -5 -4 -21 8 -35 25 -14 17 -26 28 -26 24 0
-3 -12 6 -27 19 -32 30 -182 108 -216 113 -12 2 -29 6 -37 10 -8 3 -24 8 -35
10 -35 6 -75 25 -70 33 3 5 -2 15 -10 24 -10 10 -12 17 -5 21 6 4 7 12 3 18
-5 7 -10 25 -12 41 -2 16 -10 41 -19 55 -11 15 -12 22 -4 17 22 -14 -25 55
-79 115 -29 33 -59 59 -66 59 -7 0 -13 4 -13 9 0 5 -22 20 -50 32 -27 12 -50
25 -50 29 0 3 -8 6 -17 6 -10 1 -29 4 -43 7 -60 14 -74 16 -135 18 -74 2 -77
6 -80 89 -1 30 -5 75 -9 99 -9 55 -58 166 -79 177 -15 9 -17 12 -17 36 0 6 -3
9 -6 5 -7 -7 -34 17 -34 30 0 7 -107 78 -119 78 -4 0 -12 4 -19 9 -7 4 -16 5
-19 2 -3 -3 -12 -1 -18 4 -7 6 -44 12 -82 13 -37 2 -74 6 -81 11 -6 4 -12 3
-12 -2z"/>
</g>
</svg>
